<svg version="1.1" id="Uploaded to svgrepo.com" xmlns="http://www.w3.org/2000/svg" xmlns:xlink="http://www.w3.org/1999/xlink" x="0px" y="0px"
	 width="32px" height="32px" viewBox="0 0 32 32" style="enable-background:new 0 0 32 32;" xml:space="preserve">
<style type="text/css">
	.avocado_een{fill:#231F20;}
	.avocado_zes{fill:#FFFAEE;}
	.avocado_negen{fill:#6F9B45;}
	.avocado_vijf{fill:#DBD2C1;}
	.st0{fill:#EAD13F;}
	.st1{fill:#CC4121;}
	.st2{fill:#E0A838;}
	.st3{fill:#D1712A;}
	.st4{fill:#A3AEB5;}
	.st5{fill:#788287;}
	.st6{fill:#C3CC6A;}
	.st7{fill:#248EBC;}
	.st8{fill:#8D3E93;}
	.st9{fill:#3D3935;}
	.st10{fill:#D36781;}
	.st11{fill:#E598A3;}
	.st12{fill:#716558;}
	.st13{fill:#AF9480;}
	.st14{fill:#231F20;}
</style>
<g>
	<polygon class="avocado_negen" points="13.5,28.5 13.5,27.5 0.5,27.5 0.5,5.5 31.5,5.5 31.5,27.5 18.5,27.5 18.5,28.5 	"/>
	<polygon class="avocado_zes" points="14.118,25.5 2.5,25.5 2.5,4.5 16,4.5 16,26.441 	"/>
	<g>
		<polygon class="avocado_vijf" points="16,4.5 29.5,4.5 29.5,25.5 17.882,25.5 16,26.441 		"/>
	</g>
	<path class="avocado_een" d="M6,11h6v1H6V11z M6,14h6v-1H6V14z M6,16h6v-1H6V16z M6,18h6v-1H6V18z M20,18h6v-1h-6V18z M26,11
		h-6v1h6V11z M26,13h-6v1h6V13z M26,15h-6v1h6V15z M32,5v23H19v1h-6v-1H0V5h2V4h28v1H32z M3,25h11.236L16,25.882L17.764,25H29V5H3
		V25z M31,6h-1v20H18l-2,1l-2-1H2V6H1v21h13v1h4v-1h13V6z"/>
</g>
</svg>