<?xml version="1.0" encoding="iso-8859-1"?>
<!-- Generator: Adobe Illustrator 19.0.0, SVG Export Plug-In . SVG Version: 6.00 Build 0)  -->
<svg version="1.1" id="Layer_1" xmlns="http://www.w3.org/2000/svg" xmlns:xlink="http://www.w3.org/1999/xlink" x="0px" y="0px"
	 viewBox="0 0 511.999 511.999" style="enable-background:new 0 0 511.999 511.999;" xml:space="preserve">
<path style="fill:#C3E678;" d="M90.561,190.183l-82.657,0.155l0.404,214.909c0.034,18.185,14.94,33.035,33.125,33.001l49.594-0.093
	L90.561,190.183z"/>
<g>
	<path style="fill:#D7DEED;" d="M503.847,189.406l-413.285,0.777l0.466,247.972l380.223-0.715
		c18.185-0.034,33.035-14.94,33.001-33.125L503.847,189.406z"/>
	
		<rect x="7.861" y="140.67" transform="matrix(-1 0.0019 -0.0019 -1 98.6938 330.8405)" style="fill:#D7DEED;" width="82.657" height="49.594"/>
</g>
<rect x="90.523" y="140.189" transform="matrix(-1 0.0019 -0.0019 -1 594.6468 329.4085)" style="fill:#8F96AC;" width="413.287" height="49.594"/>
<path style="fill:#C3E678;" d="M503.754,139.812l-0.062-33.063c-0.034-18.185-14.94-33.035-33.125-33.001L40.75,74.556
	C22.566,74.59,7.715,89.496,7.749,107.681l0.062,33.063L503.754,139.812z"/>
<path d="M511.969,387.774c0-0.002,0-0.004,0-0.005s0-0.004,0-0.005l-0.093-49.586c0,0,0-0.001,0-0.002c0,0,0-0.001,0-0.002
	l-0.186-99.18c0-0.002,0-0.004,0-0.005s0-0.004,0-0.005l-0.093-49.586c0,0,0-0.001,0-0.002c0,0,0-0.001,0-0.002l-0.155-82.654
	c-0.042-22.461-18.35-40.736-40.888-40.736L40.736,66.811C18.231,66.849-0.042,85.192,0,107.695l0.062,33.062v0.001v0.001
	l0.093,49.585c0,0.003,0,0.005,0,0.008c0,0.003,0,0.005,0,0.008l0.093,49.582c0,0.001,0,0.003,0,0.004c0,0.001,0,0.003,0,0.004
	l0.093,49.589v0.001v0.001l0.217,115.718c0.042,22.461,18.35,40.736,40.811,40.736c0.005,0,0.072,0,0.077,0l429.818-0.808
	c22.503-0.042,40.777-18.385,40.735-40.89L511.969,387.774z M21.777,421.185c-3.563-4.353-5.709-9.908-5.72-15.952l-0.017-8.782
	l46.932-0.088L21.777,421.185z M82.984,281.637l-46.932,0.088l46.879-28.247L82.984,281.637z M98.418,247.512l67.159-0.126
	l0.064,34.096l-67.159,0.126L98.418,247.512z M15.948,346.856l46.932-0.088L16,375.015L15.948,346.856z M36.146,331.319
	l46.878-28.247l0.053,28.158L36.146,331.319z M98.511,297.107l67.159-0.126l0.064,34.096l-67.159,0.126L98.511,297.107z
	 M181.168,296.951l67.159-0.126l0.064,34.096l-67.159,0.126L181.168,296.951z M181.139,281.452l-0.064-34.096l67.159-0.126
	l0.064,34.096L181.139,281.452z M263.733,247.201l67.159-0.126l0.064,34.096l-67.159,0.126L263.733,247.201z M346.39,247.046
	l67.159-0.126l0.064,34.096l-67.159,0.126L346.39,247.046z M429.047,246.89l67.159-0.126l0.064,34.096l-67.159,0.126L429.047,246.89
	z M429.018,231.392l-0.064-34.096l67.159-0.126l0.064,34.096L429.018,231.392z M413.52,231.421l-67.159,0.126l-0.064-34.096
	l67.159-0.126L413.52,231.421z M330.863,231.577l-67.159,0.126l-0.064-34.096l67.159-0.126L330.863,231.577z M248.205,231.732
	l-67.159,0.126l-0.064-34.096l67.159-0.126L248.205,231.732z M165.548,231.888l-67.159,0.126l-0.064-34.096l67.159-0.126
	L165.548,231.888z M82.891,232.043l-46.932,0.088l46.879-28.247L82.891,232.043z M15.668,198.073l46.932-0.088l-46.878,28.247
	L15.668,198.073z M35.866,182.536l46.879-28.247l0.053,28.159L35.866,182.536z M15.762,247.667l46.932-0.088l-46.879,28.247
	L15.762,247.667z M15.855,297.262l46.932-0.088l-46.879,28.247L15.855,297.262z M83.118,352.667l0.053,28.159l-46.932,0.088
	L83.118,352.667z M98.605,346.7l67.159-0.126l0.064,34.096l-67.159,0.126L98.605,346.7z M181.262,346.545l67.159-0.126l0.064,34.096
	l-67.159,0.126L181.262,346.545z M263.919,346.39l67.159-0.126l0.064,34.096l-67.159,0.126L263.919,346.39z M263.89,330.892
	l-0.064-34.096l67.159-0.126l0.064,34.096L263.89,330.892z M346.483,296.641l67.159-0.126l0.064,34.096l-67.159,0.126
	L346.483,296.641z M429.14,296.485l67.159-0.126l0.064,34.096l-67.159,0.126L429.14,296.485z M496.083,181.672l-67.159,0.126
	l-0.064-34.096l67.159-0.126L496.083,181.672z M413.362,147.73l0.064,34.096l-67.159,0.126l-0.064-34.096L413.362,147.73z
	 M330.706,147.886l0.064,34.096l-67.159,0.126l-0.064-34.096L330.706,147.886z M248.048,148.041l0.064,34.096l-67.159,0.126
	l-0.064-34.096L248.048,148.041z M165.391,148.197l0.064,34.096l-67.159,0.126l-0.064-34.096L165.391,148.197z M15.627,176.638
	l-0.053-28.159l46.931-0.088L15.627,176.638z M165.857,396.168l0.064,34.096l-67.159,0.126l-0.064-34.096L165.857,396.168z
	 M181.355,396.139l67.159-0.126l0.064,34.096l-67.159,0.126L181.355,396.139z M264.013,395.984l67.159-0.126l0.064,34.096
	l-67.159,0.126L264.013,395.984z M346.67,395.828l67.159-0.126l0.064,34.096l-67.159,0.126L346.67,395.828z M346.64,380.33
	l-0.064-34.096l67.159-0.126l0.064,34.096L346.64,380.33z M429.233,346.079l67.159-0.126l0.064,34.096l-67.159,0.126
	L429.233,346.079z M22.908,89.781c4.79-4.809,11.132-7.464,17.857-7.476l429.865-0.808c13.931,0,25.287,11.334,25.313,25.266
	l0.048,25.313l-74.908,0.141l0,0l0,0l-247.971,0.466l0,0l0,0l-82.657,0.155l0,0l0,0l-74.907,0.141l-0.049-25.312
	C15.486,100.941,18.116,94.59,22.908,89.781z M41.419,430.499l-0.049,7.749v-7.749c-1.494,0-2.955-0.137-4.379-0.387l46.22-27.85
	l0.053,28.159L41.419,430.499z M471.236,429.691l-41.845,0.078l-0.064-34.096l67.159-0.126l0.017,8.782
	C496.528,418.287,485.194,429.665,471.236,429.691z"/>
<path d="M40.811,115.368c0.005,0,0.01,0,0.015,0l16.531-0.031c4.28-0.008,7.743-3.484,7.735-7.764
	c-0.008-4.274-3.476-7.735-7.749-7.735c-0.005,0-0.01,0-0.015,0L40.797,99.87c-4.28,0.008-7.743,3.484-7.735,7.764
	C33.07,111.909,36.539,115.368,40.811,115.368z"/>
<path d="M123.468,115.213c0.005,0,0.01,0,0.015,0l16.531-0.031c4.28-0.008,7.743-3.484,7.735-7.764
	c-0.008-4.274-3.476-7.735-7.749-7.735c-0.005,0-0.01,0-0.015,0l-16.531,0.031c-4.28,0.008-7.743,3.484-7.735,7.764
	C115.728,111.753,119.195,115.213,123.468,115.213z"/>
<path d="M206.126,115.057c0.005,0,0.01,0,0.016,0l16.531-0.031c4.28-0.008,7.743-3.484,7.735-7.764
	c-0.008-4.274-3.476-7.735-7.749-7.735c-0.005,0-0.01,0-0.016,0l-16.531,0.031c-4.28,0.008-7.743,3.484-7.735,7.764
	C198.385,111.598,201.852,115.057,206.126,115.057z"/>
<path d="M288.783,114.902c0.005,0,0.01,0,0.016,0l16.531-0.031c4.28-0.008,7.743-3.484,7.735-7.764
	c-0.008-4.274-3.476-7.735-7.749-7.735c-0.005,0-0.01,0-0.016,0l-16.531,0.031c-4.28,0.008-7.743,3.484-7.735,7.764
	C281.042,111.442,284.51,114.902,288.783,114.902z"/>
<path d="M288.891,172.762c0.005,0,0.01,0,0.016,0l16.531-0.031c4.28-0.008,7.743-3.484,7.735-7.764
	c-0.008-4.274-3.476-7.735-7.749-7.735c-0.005,0-0.01,0-0.016,0l-16.531,0.031c-4.28,0.008-7.743,3.484-7.735,7.764
	C281.151,169.302,284.619,172.762,288.891,172.762z"/>
<path d="M288.984,222.357c0.005,0,0.01,0,0.016,0l16.531-0.031c4.28-0.008,7.743-3.484,7.735-7.764
	c-0.008-4.274-3.476-7.735-7.749-7.735c-0.005,0-0.01,0-0.016,0l-16.531,0.031c-4.28,0.008-7.743,3.484-7.735,7.764
	C281.245,218.896,284.712,222.357,288.984,222.357z"/>
<path d="M222.954,256.577c-0.005,0-0.01,0-0.016,0l-16.531,0.031c-4.28,0.008-7.743,3.484-7.735,7.764
	c0.008,4.274,3.476,7.735,7.749,7.735c0.005,0,0.01,0,0.015,0l16.531-0.031c4.28-0.008,7.743-3.484,7.735-7.764
	C230.693,260.037,227.226,256.577,222.954,256.577z"/>
<path d="M388.361,305.86c-0.005,0-0.01,0-0.016,0l-16.531,0.031c-4.28,0.008-7.743,3.484-7.735,7.764
	c0.008,4.274,3.476,7.735,7.749,7.735c0.005,0,0.01,0,0.016,0l16.531-0.031c4.28-0.008,7.743-3.484,7.735-7.764
	C396.101,309.32,392.634,305.86,388.361,305.86z"/>
<path d="M140.389,306.327c-0.005,0-0.01,0-0.016,0l-16.531,0.031c-4.28,0.008-7.743,3.484-7.735,7.764
	c0.008,4.274,3.476,7.735,7.749,7.735c0.005,0,0.01,0,0.015,0l16.531-0.031c4.28-0.008,7.743-3.484,7.735-7.764
	C148.13,309.786,144.663,306.327,140.389,306.327z"/>
<path d="M140.482,355.921c-0.005,0-0.01,0-0.016,0l-16.531,0.031c-4.28,0.008-7.743,3.484-7.735,7.764
	c0.008,4.274,3.476,7.735,7.749,7.735c0.005,0,0.01,0,0.015,0l16.531-0.031c4.28-0.008,7.743-3.484,7.735-7.764
	C148.223,359.381,144.756,355.921,140.482,355.921z"/>
<path d="M305.797,355.61c-0.005,0-0.01,0-0.016,0l-16.531,0.031c-4.28,0.008-7.743,3.484-7.735,7.764
	c0.008,4.274,3.476,7.735,7.749,7.735c0.005,0,0.01,0,0.016,0l16.531-0.031c4.28-0.008,7.743-3.484,7.735-7.764
	C313.538,359.07,310.07,355.61,305.797,355.61z"/>
<path d="M470.832,206.516c-0.005,0-0.01,0-0.016,0l-16.531,0.031c-4.28,0.008-7.743,3.484-7.735,7.764
	c0.008,4.274,3.476,7.735,7.749,7.735c0.005,0,0.01,0,0.016,0l16.531-0.031c4.28-0.008,7.743-3.484,7.735-7.764
	C478.572,209.977,475.104,206.516,470.832,206.516z"/>
<path d="M371.44,114.747c0.005,0,0.01,0,0.016,0l16.531-0.031c4.28-0.008,7.743-3.484,7.735-7.764
	c-0.008-4.274-3.476-7.735-7.749-7.735c-0.005,0-0.01,0-0.016,0l-16.531,0.031c-4.28,0.008-7.743,3.484-7.735,7.764
	C363.699,111.287,367.167,114.747,371.44,114.747z"/>
<path d="M454.098,114.591c0.005,0,0.01,0,0.016,0l16.531-0.031c4.28-0.008,7.743-3.484,7.735-7.764
	c-0.008-4.274-3.476-7.735-7.749-7.735c-0.005,0-0.01,0-0.016,0l-16.531,0.031c-4.28,0.008-7.743,3.484-7.735,7.764
	C446.357,111.132,449.824,114.591,454.098,114.591z"/>
<g>
</g>
<g>
</g>
<g>
</g>
<g>
</g>
<g>
</g>
<g>
</g>
<g>
</g>
<g>
</g>
<g>
</g>
<g>
</g>
<g>
</g>
<g>
</g>
<g>
</g>
<g>
</g>
<g>
</g>
</svg>
