<?xml version="1.0" encoding="iso-8859-1"?>
<!-- Generator: Adobe Illustrator 19.0.0, SVG Export Plug-In . SVG Version: 6.00 Build 0)  -->
<svg version="1.1" id="Layer_1" xmlns="http://www.w3.org/2000/svg" xmlns:xlink="http://www.w3.org/1999/xlink" x="0px" y="0px"
	 viewBox="0 0 504.123 504.123" style="enable-background:new 0 0 504.123 504.123;" xml:space="preserve">
<circle style="fill:#324A5E;" cx="252.062" cy="252.062" r="252.062"/>
<path style="fill:#84DBFF;" d="M401.723,232.763l-24.418-24.418c-3.545-3.545-5.908-8.665-5.908-13.785v-34.658
	c0-14.966-12.209-27.175-27.175-27.175h-34.658c-5.12,0-10.24-1.969-13.785-5.908L271.36,102.4
	c-10.634-10.634-27.963-10.634-38.597,0l-24.418,24.418c-3.545,3.545-8.665,5.908-13.785,5.908h-34.658
	c-14.966,0-27.175,12.209-27.175,27.175v34.658c0,5.12-1.969,10.24-5.908,13.785L102.4,232.763
	c-10.634,10.634-10.634,27.963,0,38.597l24.418,24.418c3.545,3.545,5.908,8.665,5.908,13.785v34.658
	c0,14.966,12.209,27.175,27.175,27.175h34.658c5.12,0,10.24,1.969,13.785,5.908l24.418,24.418c5.12,5.12,12.209,7.877,19.298,7.877
	c7.089,0,13.785-2.757,19.298-7.877l24.418-24.418c3.545-3.545,8.665-5.908,13.785-5.908h34.658
	c14.966,0,27.175-12.209,27.175-27.175v-34.658c0-5.12,1.969-10.24,5.908-13.785l24.418-24.418
	C412.357,260.726,412.357,243.397,401.723,232.763z"/>
<path style="fill:#54C0EB;" d="M387.545,246.548l-24.418-24.418c-7.483-7.483-11.422-17.329-11.422-27.569v-34.658
	c0-4.332-3.545-7.483-7.483-7.483h-34.658c-10.634,0-20.48-3.938-27.569-11.422l-24.418-24.418
	c-1.969-1.969-4.332-2.363-5.514-2.363s-3.545,0.394-5.514,2.363l-24.418,24.418c-7.483,7.483-17.329,11.422-27.569,11.422h-34.658
	c-4.332,0-7.483,3.545-7.483,7.483v34.658c0,10.634-3.938,20.48-11.422,27.569l-24.418,24.418c-2.757,2.757-2.757,7.877,0,10.634
	l24.418,24.418c7.483,7.483,11.422,17.329,11.422,27.569v34.658c0,4.332,3.545,7.483,7.483,7.483h34.658
	c10.634,0,20.48,3.938,27.569,11.422l24.418,24.418c1.969,1.969,4.332,2.363,5.514,2.363s3.545-0.394,5.514-2.363l24.418-24.418
	c7.483-7.483,17.329-11.422,27.569-11.422h34.658c4.332,0,7.483-3.545,7.483-7.483v-34.658c0-10.634,3.938-20.48,11.422-27.569
	l24.418-24.418C390.695,254.425,390.695,249.698,387.545,246.548z M357.612,276.48c-9.059,9.058-13.785,20.874-13.785,33.477v34.265
	h-34.265c-12.603,0-24.418,4.726-33.477,13.785l-24.025,24.025l-24.418-24.418c-9.058-9.059-20.874-13.785-33.477-13.785h-34.265
	v-34.265c0-12.603-4.726-24.418-13.785-33.477l-24.025-24.025l24.418-24.418c9.058-9.058,13.785-20.874,13.785-33.477v-34.265
	h34.265c12.603,0,24.418-4.726,33.477-13.785l24.025-24.025l24.418,24.418c9.058,9.058,20.874,13.785,33.477,13.785h34.265v34.265
	c0,12.603,4.726,24.418,13.785,33.477l24.025,24.025L357.612,276.48z"/>
<path style="fill:#FFFFFF;" d="M235.126,193.378c5.12,5.908,7.877,12.603,7.877,20.874c0,8.271-2.757,14.966-8.271,20.874
	c-5.514,5.908-12.209,8.665-20.086,8.665s-14.572-2.757-20.086-8.665c-5.12-5.908-7.877-12.603-7.877-20.874
	c0-8.271,2.757-14.966,7.877-20.874c5.514-5.908,12.209-8.665,20.086-8.665C223.311,184.714,230.006,187.865,235.126,193.378z
	 M310.745,187.865l-94.917,129.969h-24.025l94.917-129.575h24.025V187.865z M222.917,224.098c1.969-2.363,3.151-5.514,3.151-9.452
	c0-3.545-1.182-6.695-3.151-9.452c-1.969-2.363-4.726-3.938-7.877-3.938s-5.514,1.182-7.483,3.938
	c-1.969,2.363-3.151,5.514-3.151,9.452c0,3.545,1.182,6.695,3.151,9.452c1.969,2.363,4.726,3.938,7.877,3.938
	C218.191,228.037,220.948,226.855,222.917,224.098z M308.775,268.603c5.12,5.908,7.877,12.603,7.877,20.874
	c0,8.271-2.757,15.36-8.271,20.874c-5.514,5.908-12.209,8.665-20.086,8.665s-14.572-2.757-20.086-8.665
	c-5.12-5.908-7.877-12.603-7.877-20.874s2.757-14.966,8.271-20.874c5.514-5.908,12.209-8.665,20.086-8.665
	C296.96,259.938,303.655,263.089,308.775,268.603z M296.96,299.717c1.969-2.363,3.151-5.514,3.151-9.452
	c0-3.545-1.182-6.695-3.151-9.452c-1.969-2.363-4.726-3.938-7.877-3.938c-3.151,0-5.514,1.182-7.483,3.938
	c-1.969,2.757-3.151,5.514-3.151,9.452c0,3.545,1.182,6.695,3.151,9.452c1.969,2.363,4.726,3.938,7.877,3.938
	S294.991,302.08,296.96,299.717z"/>
<g>
</g>
<g>
</g>
<g>
</g>
<g>
</g>
<g>
</g>
<g>
</g>
<g>
</g>
<g>
</g>
<g>
</g>
<g>
</g>
<g>
</g>
<g>
</g>
<g>
</g>
<g>
</g>
<g>
</g>
</svg>
