<?xml version="1.0" encoding="iso-8859-1"?>
<!-- Generator: Adobe Illustrator 19.0.0, SVG Export Plug-In . SVG Version: 6.00 Build 0)  -->
<svg version="1.1" id="Layer_1" xmlns="http://www.w3.org/2000/svg" xmlns:xlink="http://www.w3.org/1999/xlink" x="0px" y="0px"
	 viewBox="0 0 512 512" style="enable-background:new 0 0 512 512;" xml:space="preserve">
<path style="fill:#959CB5;" d="M326.621,61.793h-17.655V35.31c0-9.737-7.923-17.655-17.655-17.655H220.69
	c-9.732,0-17.655,7.918-17.655,17.655v26.483h-17.655V35.31c0-19.47,15.837-35.31,35.31-35.31h70.621
	c19.474,0,35.31,15.84,35.31,35.31V61.793z"/>
<path style="fill:#C7CFE2;" d="M450.207,79.448l-25.468,415.976c-0.57,9.314-8.29,16.576-17.622,16.576H104.883
	c-9.332,0-17.052-7.262-17.622-16.576L61.793,79.448"/>
<path style="fill:#AFB9D2;" d="M450.207,79.448H61.793l25.468,415.976c0.57,9.314,8.29,16.576,17.622,16.576h111.834
	c-6.786,0-12.402-7.263-12.817-16.576l-16.522-371.052c-0.447-10.049,7.58-18.441,17.639-18.441h243.569L450.207,79.448z"/>
<path style="fill:#C7CFE2;" d="M432.552,79.448l-18.538-24.717c-5.002-6.668-12.851-10.593-21.186-10.593H119.172
	c-8.335,0-16.184,3.925-21.186,10.593L79.448,79.448"/>
<g>
	<path style="fill:#FFFFFF;" d="M381.793,302.345c0-9.811-1.129-19.573-3.362-29.022c-1.397-5.922-7.319-9.608-13.276-8.199
		c-5.931,1.401-9.603,7.345-8.207,13.276c1.845,7.785,2.776,15.841,2.776,23.945c0,34.973-17.214,66.304-44.505,85.18l0.505-0.71
		c3.543-4.961,2.388-11.853-2.578-15.388c-4.957-3.552-11.853-2.392-15.388,2.578l-24.172,33.901
		c-2.207,3.095-2.664,7.112-1.216,10.63c1.457,3.513,4.621,6.03,8.38,6.659l41.06,6.874c0.612,0.104,1.224,0.151,1.836,0.151
		c5.293,0,9.965-3.819,10.862-9.212c1.009-6.013-3.043-11.699-9.06-12.707l-3.903-0.653
		C358.248,387.367,381.793,347.361,381.793,302.345z"/>
	<path style="fill:#FFFFFF;" d="M232.052,403.297c-43.509-10.282-74.817-46.682-79.197-90.417l0.611,1.24
		c1.913,3.901,5.836,6.164,9.906,6.164c1.638,0,3.302-0.366,4.862-1.138c5.474-2.694,7.724-9.311,5.026-14.776l-18.397-37.357
		c-1.681-3.414-5-5.72-8.785-6.103c-3.758-0.396-7.5,1.212-9.827,4.215l-25.517,32.9c-3.742,4.814-2.862,11.746,1.956,15.482
		c4.819,3.742,11.75,2.858,15.474-1.956l2.306-2.975c2.717,55.921,41.568,103.215,96.512,116.194
		c0.853,0.203,1.707,0.301,2.543,0.301c5,0,9.535-3.423,10.733-8.5C241.655,410.643,237.983,404.698,232.052,403.297z"/>
	<path style="fill:#FFFFFF;" d="M315.285,217.422c-5.827-1.685-11.975,1.689-13.655,7.552c-1.689,5.858,1.698,11.97,7.552,13.655
		l40.018,11.513c1.009,0.289,2.035,0.431,3.052,0.431c2.69,0,5.327-0.983,7.38-2.828c2.828-2.543,4.147-6.367,3.491-10.112
		l-7.19-41.013c-1.052-6.008-6.793-9.978-12.776-8.966c-6.001,1.056-10.017,6.772-8.966,12.776l0.68,3.869
		c-22.108-17.863-49.69-27.748-78.871-27.748c-38.974,0-75.121,17.633-99.155,48.38c-3.758,4.802-2.905,11.737,1.897,15.491
		c2.017,1.578,4.405,2.34,6.784,2.34c3.276,0,6.526-1.457,8.698-4.237c19.827-25.362,49.638-39.905,81.775-39.905
		c21.678,0,42.208,6.752,59.416,18.839L315.285,217.422z"/>
</g>
<path style="fill:#AFB9D2;" d="M207.338,44.138h-88.166c-8.335,0-16.184,3.925-21.186,10.593L79.448,79.448h97.103l14.367-24.717
	C194.795,48.063,200.877,44.138,207.338,44.138z"/>
<path style="fill:#959CB5;" d="M467.862,88.276H44.138c-4.879,0-8.828-3.953-8.828-8.828c0-4.875,3.948-8.828,8.828-8.828h423.724
	c4.879,0,8.828,3.953,8.828,8.828C476.69,84.323,472.742,88.276,467.862,88.276z"/>
<path style="fill:#7F8499;" d="M158.897,79.448c0-4.875,3.948-8.828,8.828-8.828H44.138c-4.879,0-8.828,3.953-8.828,8.828
	c0,4.875,3.948,8.828,8.828,8.828h123.586C162.845,88.276,158.897,84.323,158.897,79.448z"/>
<g>
	<path style="fill:#E4EAF8;" d="M156.845,224.931c-3.758,4.802-2.905,11.737,1.897,15.491c2.017,1.578,4.405,2.34,6.784,2.34
		c3.276,0,6.526-1.457,8.698-4.237c5.175-6.62,11.059-12.457,17.458-17.536l-1.159-26.009
		C177.803,202.759,166.35,212.771,156.845,224.931z"/>
	<path style="fill:#E4EAF8;" d="M152.854,312.881l0.611,1.24c1.913,3.901,5.836,6.164,9.906,6.164c1.638,0,3.302-0.366,4.862-1.138
		c5.474-2.694,7.724-9.311,5.026-14.776l-18.397-37.357c-1.681-3.414-5-5.72-8.785-6.103c-3.758-0.396-7.5,1.212-9.827,4.215
		l-25.517,32.9c-3.742,4.814-2.862,11.746,1.956,15.482c4.819,3.742,11.75,2.858,15.474-1.956l2.306-2.975
		c2.252,46.348,29.37,86.703,69.857,106.574l-1.158-26.001C173.357,372.302,156.025,344.544,152.854,312.881z"/>
</g>
<g>
</g>
<g>
</g>
<g>
</g>
<g>
</g>
<g>
</g>
<g>
</g>
<g>
</g>
<g>
</g>
<g>
</g>
<g>
</g>
<g>
</g>
<g>
</g>
<g>
</g>
<g>
</g>
<g>
</g>
</svg>
