<?xml version="1.0" encoding="iso-8859-1"?>
<!-- Generator: Adobe Illustrator 19.0.0, SVG Export Plug-In . SVG Version: 6.00 Build 0)  -->
<svg version="1.1" id="Layer_1" xmlns="http://www.w3.org/2000/svg" xmlns:xlink="http://www.w3.org/1999/xlink" x="0px" y="0px"
	 viewBox="0 0 512 512" style="enable-background:new 0 0 512 512;" xml:space="preserve">
<g>
	<rect y="293.926" style="fill:#263238;" width="132.741" height="9.481"/>
	<rect x="379.259" y="151.704" style="fill:#263238;" width="132.741" height="9.481"/>
	<rect x="37.926" y="189.63" style="fill:#263238;" width="56.889" height="284.444"/>
</g>
<path style="fill:#01579B;" d="M218.074,474.074H66.37V94.815h151.704V474.074z M445.63,189.63H293.926v284.444H445.63V189.63z"/>
<rect x="113.778" y="18.963" style="fill:#FFECB3;" width="284.444" height="474.074"/>
<g>
	<rect x="142.222" y="407.704" style="fill:#01579B;" width="113.778" height="18.963"/>
	<rect x="142.222" y="360.296" style="fill:#01579B;" width="208.593" height="18.963"/>
	<rect x="142.222" y="312.889" style="fill:#01579B;" width="227.556" height="18.963"/>
	<rect x="142.222" y="265.481" style="fill:#01579B;" width="218.074" height="18.963"/>
	<rect x="142.222" y="218.074" style="fill:#01579B;" width="189.63" height="18.963"/>
	<rect x="142.222" y="170.667" style="fill:#01579B;" width="218.074" height="18.963"/>
	<rect x="142.222" y="123.259" style="fill:#01579B;" width="208.593" height="18.963"/>
	<rect x="142.222" y="75.852" style="fill:#01579B;" width="227.556" height="18.963"/>
</g>
<circle style="fill:#FFC107;" cx="90.074" cy="298.667" r="37.926"/>
<polygon style="fill:#F44336;" points="512,227.556 512,369.778 94.815,298.667 "/>
<g>
</g>
<g>
</g>
<g>
</g>
<g>
</g>
<g>
</g>
<g>
</g>
<g>
</g>
<g>
</g>
<g>
</g>
<g>
</g>
<g>
</g>
<g>
</g>
<g>
</g>
<g>
</g>
<g>
</g>
</svg>
