<svg width="256px" height="256px" viewBox="0 0 256 256" xmlns="http://www.w3.org/2000/svg"><defs><style>.cls-1{fill:#cbecf9;}.cls-2{fill:#fff;}.cls-3{fill:#2fb1ea;}.cls-4{fill:#e5f5fc;}.cls-5{fill:#6dd0fc;}.cls-6{fill:#a4ecff;}.cls-7{fill:#d4ffd4;}.cls-8{fill:#ffbdbd;}.cls-9{fill:#bbf1ff;}.cls-10{fill:#fff4c5;}</style></defs><title>business economic finance interprise company view</title><g id="Layer_2" data-name="Layer 2"><path class="cls-1" d="M176.42,74.44H212v142.7A14.86,14.86,0,0,1,197.15,232H58.85A14.86,14.86,0,0,1,44,217.14V38.86A14.86,14.86,0,0,1,58.85,24H161.56V59.58A14.86,14.86,0,0,0,176.42,74.44Z"/><path class="cls-2" d="M176.42,74.44H201v131.7A14.86,14.86,0,0,1,186.15,221H58.85A14.86,14.86,0,0,1,44,206.14V38.86A14.86,14.86,0,0,1,58.85,24H161.56V59.58A14.86,14.86,0,0,0,176.42,74.44Z"/><path class="cls-1" d="M212,85.44H176.42a14.86,14.86,0,0,1-14.86-14.86V35l50.05,39.44Z"/><path class="cls-3" d="M197.15,234H58.85A16.88,16.88,0,0,1,42,217.14V38.86A16.88,16.88,0,0,1,58.85,22H161.56a2,2,0,0,1,2,2V59.58a12.87,12.87,0,0,0,12.86,12.86H212a2,2,0,0,1,2,2v142.7A16.88,16.88,0,0,1,197.15,234ZM58.85,26A12.87,12.87,0,0,0,46,38.86V217.14A12.87,12.87,0,0,0,58.85,230H197.15A12.87,12.87,0,0,0,210,217.14V76.44H176.42a16.88,16.88,0,0,1-16.86-16.86V26Z"/><path class="cls-4" d="M212,74.44H176.42a14.86,14.86,0,0,1-14.86-14.86V24Z"/><path class="cls-3" d="M212,76.44H176.42a16.88,16.88,0,0,1-16.86-16.86V24A2,2,0,0,1,163,22.59L213.42,73A2,2,0,0,1,212,76.44ZM163.56,28.83V59.58a12.87,12.87,0,0,0,12.86,12.86h30.75Z"/><path class="cls-1" d="M186.78,128S160.47,156.06,128,156.06,69.22,128,69.22,128,95.53,99.94,128,99.94,186.78,128,186.78,128Z"/><path class="cls-2" d="M179.32,133.61s-23,22.44-51.32,22.44-51.32-22.44-51.32-22.44,23-22.44,51.32-22.44S179.32,133.61,179.32,133.61Z"/><path class="cls-3" d="M128,158.06c-33,0-59.14-27.52-60.24-28.69a2,2,0,0,1,0-2.74C68.86,125.46,95,97.94,128,97.94s59.14,27.52,60.24,28.69a2,2,0,0,1,0,2.74C187.14,130.54,161,158.06,128,158.06ZM72,128c5.75,5.55,28.84,26.06,56,26.06s50.21-20.51,56-26.06c-5.75-5.55-28.84-26.06-56-26.06S77.79,122.45,72,128Z"/><circle class="cls-5" cx="128" cy="128" r="28.06"/><circle class="cls-6" cx="128" cy="122.68" r="22.74"/><path class="cls-3" d="M128,158.06A30.06,30.06,0,1,1,158.06,128,30.09,30.09,0,0,1,128,158.06Zm0-56.12A26.06,26.06,0,1,0,154.06,128,26.09,26.09,0,0,0,128,101.94Z"/><circle class="cls-7" cx="232" cy="133" r="5"/><circle class="cls-7" cx="128" cy="8" r="4"/><circle class="cls-7" cx="8" cy="115" r="3"/><circle class="cls-7" cx="67" cy="250" r="2"/><circle class="cls-7" cx="38" cy="199" r="1"/><circle class="cls-8" cx="7" cy="177" r="5"/><circle class="cls-8" cx="37" cy="232" r="4"/><circle class="cls-8" cx="237" cy="107" r="3"/><circle class="cls-8" cx="232" cy="197" r="2"/><circle class="cls-8" cx="171" cy="240" r="1"/><circle class="cls-9" cx="198" cy="28" r="5"/><circle class="cls-9" cx="22" cy="92" r="4"/><circle class="cls-9" cx="125" cy="244" r="3"/><circle class="cls-9" cx="26" cy="28" r="2"/><circle class="cls-9" cx="28" cy="47" r="1"/><circle class="cls-10" cx="249" cy="57" r="5"/><circle class="cls-10" cx="22" cy="140" r="4"/><circle class="cls-10" cx="81" cy="13" r="3"/><circle class="cls-10" cx="214" cy="49" r="2"/><circle class="cls-10" cx="99" cy="241" r="1"/></g></svg>